<?xml version="1.0" encoding="UTF-8"?>
<!-- Created with Inkscape (http://www.inkscape.org/) -->
<svg fill="#ffffff" width="322.09mm" height="303.32mm" version="1.1" viewBox="0 0 322.09 303.32"
     xmlns="http://www.w3.org/2000/svg">
    <g transform="translate(47.667 8.7247)">
        <path transform="translate(-1.3125e-6)"
              d="m66.655 277.53c-10.204-1.7243-23.691-8.4778-32.922-16.486-3.3577-2.9128-5.9774-5.7751-8.0307-8.7744-0.91019-1.3295-2.5014-4.21-2.3858-4.3189 16.021 5.6598 23.611 1.1401 25.326-5.933 0.78145-3.222 0.59892-6.8554-0.31857-10.434 4.9802 1.0621 10.068 1.738 14.743 1.3853 11.284-0.70391 22.42-6.9843 22.444-20.046 0.0095-10.652-8.293-21.964-24.576-24.259l-4.2907 3e-3c-7.0012-0.0598-14.737 1.9876-20.277 6.3126-5.6278 4.3942-8.9866 11.144-6.8656 21.038l-1.5113-0.96968c-10.44-7.7696-30.771-4.7327-23.407 9.7725 0.51166 0.96755 1.118 2.0255 1.3475 2.3509l0.41716 0.59169-1.1204-0.47477c-2.3357-0.98976-2.7485-1.1432-4.4972-1.671-8.4313-2.6526-12.685 0.9907-11.614 7.6968 0.38809 2.8516 1.6424 6.2636 3.2635 8.8777l0.73741 1.1891h-0.61501c-3.9505 0-11.705-4.8324-17.745-11.058-7.8555-8.097-13.302-17.213-15.633-26.166-0.51875-1.9921-0.82751-3.9933-0.95299-5.4188l-0.11693-1.3284c2.4713-0.046 5.1743-0.19611 7.3261-0.5918 14.095-2.6038 30.456-13.452 39.43-26.146 2.3156-3.2753 3.6248-5.9128 4.8572-9.7848l0.083113-0.26115c2.2146 4.7938 3.0158 10.757 2.5413 15.464l1.2643-1.5412c4.9863-6.0781 13.096-13.104 17.265-14.957l1.1604-0.51594-0.25606-1.5693c-0.47737-2.5805-0.47313-5.3466 0.03195-7.6676 0.63981-2.8762 1.7199-4.9996 4.5397-8.9246 3.7207-5.179 7.1783-10.882 10.992-18.13 8.0039-15.213 12.866-29.348 13.783-40.071l0.05381-0.62892 1.5428 1.4375c5.4469 5.0753 10.172 14.204 11.146 21.534 0.36791 2.5902 0.23995 5.304-0.2387 7.486h0.27735c1.2802 0 3.4799-1.9509 5.0821-3.1282 8.3314-6.548 17.924-20.92 26.997-40.447 0.96426-2.0754 2.0041-4.3788 2.3108-5.1185l0.55754-1.345 0.0953 19.795 0.0953 19.795 0.99383-0.32981c3.9449-1.3091 11.367-7.9272 20.62-18.386 3.0502-3.4478 6.3143-7.2998 8.6085-10.159 0.57514-0.71677 1.0746-1.2215 1.1099-1.1216 0.0353 0.09987-0.24761 4.9149-0.62875 10.7-0.38114 5.7852-0.66607 10.752-0.63318 11.037l0.0598 0.51832 23.074-45.793 17.8-20.792c9.7901-11.436 17.926-20.914 18.08-21.062l0.27945-0.26954-0.36953 0.80862c-0.20325 0.44474-2.3031 4.9326-4.6665 9.9729l-4.2969 9.1643-32.697 61.814c-17.983 33.998-32.672 61.841-32.643 61.873 0.0298 0.0324 5.7153-1.9082 12.635-4.3126l12.58-4.3716 18.36-36.793c10.098-20.236 18.395-36.76 18.438-36.719 0.0428 0.04029-0.18242 2.0824-0.50041 4.538-1.1666 9.009-1.5664 13.055-1.5332 15.516l0.023 1.7071-0.77463 2.336c-1.0382 3.1307-3.811 10.469-6.8728 18.19l-2.5105 6.3305 0.41724 20.845-5.1377 9.2608-10.412 5.8223c-5.7265 3.2023-10.377 5.8554-10.334 5.8957 0.0428 0.0404 6.566-2.2256 14.496-5.0356 7.9299-2.8099 14.418-5.0919 14.418-5.0711 0 0.0208-5.2682 3.346-11.707 7.3892l-11.707 7.3514-4.204 8.388-4.2041 8.3881 0.18955 2.3829c0.10424 1.3106 0.25209 2.4882 0.32852 2.6169l0.13898 0.23399 1.5116-1.9851c0.83138-1.0918 1.6034-2.0569 1.7157-2.1447 0.15704-0.12282 84.051-27.314 84.273-27.314 0.0279 0 0.15256 0.32005 0.27693 0.71122 0.12438 0.39118 0.30352 0.75629 0.39808 0.81136 0.0946 0.0551 6.5368-1.8438 14.316-4.2197l14.144-4.3198 5.798 0.0988-42.317 16.711c-23.274 9.1913-49.776 19.624-58.893 23.183l-16.576 6.4719-0.95184 1.3581-0.95184 1.3581 0.68029 1.5901c0.37414 0.87452 0.75109 1.7093 0.83767 1.855l0.15736 0.26499 2.623-3.6165 47.037-18.344 7.6362 2.6905 12.009-4.2444c6.6047-2.3344 12.036-4.2166 12.069-4.1827 0.0332 0.0339-0.26051 0.70853-0.65276 1.4992l-0.71318 1.4375-23.532 9.2357c-12.943 5.0796-23.632 9.3088-23.754 9.3983-0.12222 0.0894-0.76582 1.0146-1.4302 2.056l-1.208 1.8934-12.205 5.7539c-6.7125 3.1646-12.236 5.7815-12.275 5.8152-0.22134 0.19348 3.8306 5.1968 6.7581 8.3448 2.0854 2.2424 7.1324 6.9284 9.4725 8.7947 0.91715 0.73147 1.6346 1.361 1.5943 1.3989-0.0403 0.0379-0.57613-0.0499-1.1908-0.19518-2.9479-0.69683-6.7719-1.0143-12.178-1.0109-23.532 0.0147-57.097 7.6409-75.686 17.196-8.1728 4.2509-18.884 10.982-18.867 20.039 0.0063 3.2804 1.7208 6.9489 5.5272 11.101 0.66574 0.66501 1.2104 1.2599 1.2104 1.322 0 0.23423-3.9855 0.0706-5.8162-0.23873zm-0.26795-130.87c6.4102-10.366 11.624-18.872 11.587-18.903-0.05341-0.044-18.336 19.824-23.965 26.043l-1.2046 1.3309 0.5857 4.9049c0.32214 2.6977 0.63593 5.1869 0.69732 5.5316l0.11162 0.62666 0.26676-0.34377c0.14672-0.18908 5.5115-8.8249 11.922-19.191zm84.492 31.696c0.035-0.0834 1.2982-2.6112 2.8072-5.6172l2.7437-5.4655 29.89-18.776-2.5099 2.921c-1.3805 1.6066-4.9209 5.7354-7.8677 9.1752l-5.3578 6.2541-9.7496 5.8302c-5.3623 3.2066-9.8103 5.8302-9.8844 5.8302-0.0741 0-0.10622-0.0683-0.0712-0.15172zm-21.39-31.9c0-0.096 46.538-85.636 63.363-116.46 7.6272-13.976 10.713-19.562 10.571-19.137-0.0496 0.14825-0.86532 2.1705-1.8128 4.4939-2.9586 7.2555-5.3719 13.271-6.5475 16.32-0.28624 0.74243-1.1703 3.0025-1.1703 3.0025s-0.91153 1.7219-1.3131 2.4781c-2.7657 5.2081-21.967 40.061-40.012 72.626l-9.7578 17.61 0.68655 6.5588c0.3776 3.6073 0.72246 6.7205 0.76633 6.9182l0.0798 0.35939-6.4256 2.2951c-8.7012 3.1079-8.428 3.0126-8.428 2.9398zm17.344-7.2116c-8e-3 -0.19766-0.33768-3.23-0.73298-6.7385l-0.71871-6.3791 1.5215-2.7852c0.83681-1.5319 1.5785-2.8469 1.6482-2.9222 0.0697-0.0753 0.53933 2.5527 1.0436 5.84l0.91685 5.977-1.8321 3.6837c-1.0077 2.026-1.8385 3.522-1.8464 3.3243zm5.0939-17.346-0.71867-6.4742 1.5712-2.7764c0.86416-1.527 1.6041-2.7454 1.6442-2.7076 0.0402 0.0379 0.48882 2.6441 0.99695 5.7916l0.92384 5.7227-1.7305 3.4591c-0.95175 1.9025-1.784 3.4591-1.8494 3.4591-0.0654 0-0.44236-2.9134-0.83764-6.4742zm6.1666-4.2959c0-0.14104-0.30817-2.9075-0.68483-6.1476l-0.68483-5.8912 1.4953-2.5965c0.82242-1.4281 1.5084-2.5831 1.5244-2.5666 0.016 0.0164 0.42817 2.4334 0.91591 5.3711l0.88682 5.3412-1.7264 3.373c-0.94951 1.8552-1.7264 3.2576-1.7264 3.1166zm4.966-9.9844c-7e-3 -0.0988-0.30878-2.604-0.67116-5.5671l-0.65885-5.3874 1.4088-2.4163 1.4088-2.4162 0.11392 0.616c0.0627 0.3388 0.45083 2.5868 0.86258 4.9955l0.74862 4.3795-1.6002 2.9879c-0.88012 1.6433-1.6058 2.907-1.6125 2.8082zm22.685-38.274c0-0.04941 0.0429-0.08985 0.0953-0.08985s0.0953 0.04043 0.0953 0.08985-0.0429 0.08985-0.0953 0.08985-0.0953-0.04043-0.0953-0.08985z"
              stroke-width=".18511"/>
    </g>
</svg>
