<svg id="Layer_1" data-name="Layer 1" xmlns="http://www.w3.org/2000/svg" viewBox="0 0 800 145" fill="#fff">
    <title>draconium-final</title>
    <path d="M137.78,13H43.18A29.31,29.31,0,0,1,56.33,37.47v81.45l81.45-61.09ZM121.49,49.69,72.62,86.34v-57h48.87Z"/>
    <path
        d="M447.3,13h-57a24.44,24.44,0,0,0-24.44,24.44V61.9h29.42A29.31,29.31,0,0,1,382.14,38v-.56a8.15,8.15,0,0,1,8.15-8.15h8.15c18,0,32.58,2.36,32.58,32.58A8.15,8.15,0,0,1,422.86,70H317a8.15,8.15,0,0,1-8.15-8.15V29.32h50a29.42,29.42,0,0,1,12-16.29H292.54V61.9A24.44,24.44,0,0,0,317,86.34H422.86A24.44,24.44,0,0,0,447.3,61.9Z"/>
    <rect x="536.9" y="13.03" width="16.29" height="73.31"/>
    <path
        d="M284.4,61.91V13H256.59l-57,57H186.66V61.9h11.52l21.06-21.06V13H145.93V58L110.49,86.34h26.08l25.65-20.52V29.32h40.73v4.77L191.43,45.61H170.36V86.34h36l57-57h4.77v57h29.44A29.31,29.31,0,0,1,284.4,61.91Z"/>
    <path
        d="M690.72,40.73,656.54,13H637.78V86.34h29.44A29.31,29.31,0,0,1,654.07,62V31L690.72,61.9,727.38,31V91.44s-5.86-6.42-23.32-11.6c-18.19-5.41-33.69,6.5-33.69,6.5s17.59-3.46,32,4.06a137.25,137.25,0,0,1,25,16.3l16.29,12.22V37.47A29.31,29.31,0,0,1,756.82,13H724.91Z"/>
    <path
        d="M512.46,13V40.08L483.06,13H455.45V61.91h0A29.31,29.31,0,0,1,442.3,86.34h29.44v-57h5l35.76,32.9V86.34h16.29V13Z"/>
    <path
        d="M720.29,0,690.72,24,661.15,0H600.31V57h-9.66V0H499.43V10.39L488.14,0h-237L232.27,18.92V0H0L36,23.89A16.29,16.29,0,0,1,43.3,37.47V145l60.82-45.61h37l16.19-13v13h54.39L255.07,56V99.37H484.77V54.45l14.66,13.49V99.37H688.72a28.77,28.77,0,0,1,7.67,2.59,128.39,128.39,0,0,1,22.4,14.55L756.7,145V37.47A16.29,16.29,0,0,1,764,23.89L800,0Zm40.13,18.46a22.79,22.79,0,0,0-10.24,19V132l-26.92-20.19-.2-.17A132,132,0,0,0,699.4,96.18a35.47,35.47,0,0,0-9.75-3.27l-.3-.06H505.95V65.08L478.25,39.6V92.85H261.59V40.28L209,92.85H163.85v-20l-25,20H101.95L49.82,132V37.47a22.79,22.79,0,0,0-10.24-19l-18-11.94H225.75V34.65L253.89,6.52H485.6l20.35,18.72V6.52h78.19v57h22.69v-57h52l31.88,25.82L722.6,6.52h55.8Z"/>
    <polygon
        points="613.34 70.05 577.62 70.05 577.62 13.03 561.33 13.03 561.33 86.34 629.63 86.34 629.63 13.03 613.34 13.03 613.34 70.05"/>
    <polygon points="154.66 104.06 138.09 104.06 110.3 124.89 126.88 124.89 154.66 104.06"/>
    <polygon
        points="208.11 131 202.52 131 199.07 127.55 195.62 131 190.03 131 186.58 127.55 182.32 131.81 186.58 136.08 190.03 132.63 195.62 132.63 199.07 136.08 202.52 132.63 208.11 132.63 211.56 136.08 215.82 131.81 211.56 127.55 208.11 131"/>
    <polygon points="689.69 124.89 661.91 104.06 645.34 104.06 673.12 124.89 689.69 124.89"/>
    <path
        d="M692.23,104.06H669.14l27.78,20.84h0l3.89,2.92H645.25a5.32,5.32,0,0,0-7.55-6l-2.1-1.55h14.08l6.21,4.65h10.86L639,104.06H628.1L641,113.72H626.76L616.24,106H510.63l7.75,7.75H506.14l-9.48-9.48H452.13l-9.69,9.69-4.64-4.64H422.93L415.88,113l1.13-1.77,3.11-11.55-6.87,9.35-4.58,1.76-1.36-2.88.41-3.76L400,110.88l-7.73-6.71.41,3.76-1.36,2.88-4.58-1.76-6.87-9.35L383,111.25l1.14,1.77-7.07-3.74H362.2l-4.65,4.65-9.69-9.69H303.33l-9.48,9.48H281.6l7.75-7.75H183.75l-10.52,7.75H159l12.89-9.67H161l-27.78,20.84h10.86l6.21-4.65h14.08l-2.1,1.55a5.3,5.3,0,0,0-2.34-.56,5.32,5.32,0,0,0-5.21,6.59H99.15l3.89-2.92h0l27.78-20.84H107.76L80,124.89H97.62l-11.11,8.33-3.91,2.93h70.2v-.81h14.14v.81h3.41l.48-.48,9.7-9.7h39.83l.48-.48,5.26-5.26h25.2l-13,13H303l7.57-7.57h20.74A7.8,7.8,0,0,0,344,129.92l8.6,8.6.24.24h6.83v.81H375v-.81h19l1.17,2.19,0-2.15,2.13,2.15h5.38l2.13-2.15,0,2.15,1.17-2.19h24.6v.81h16.89l.48-.48,5.39-5.39-.58-.58,3.21-3.21a7.8,7.8,0,0,0,12.72-4.29h20.74L497,133.2h64.64l-13-13h25.2l5.26,5.26.48.48h39.83l9.7,9.7.48.48h3.41v-.81h14.14v.81h70.19l-3.91-2.93-11.11-8.33H720Zm-48.45,22.53a3.73,3.73,0,1,1-3.73-3.73A3.74,3.74,0,0,1,643.78,126.59ZM518.5,109.23h96.67l6.1,4.49H523Zm-77.21,5.85-2,2L434,111.76h-8l-.85-.85h11.92Zm-38,9.34,9.69-6.86,1.13-1.75,7.46-3.95L424.7,115h8l4.34,4.34-2.4,2.4h-3.12v2.44H412.73l1.2-4.2-10.66,6.43ZM387,117.56l9.69,6.86v2L386.07,120l1.2,4.2H368.51v-2.44h-3.12l-2.4-2.4,4.34-4.34h8l3.16-3.16,7.47,4Zm-24.18-6.65h11.92l-.85.85h-8l-5.29,5.29-2-2Zm-178-1.68h96.67L277,113.72H178.73Zm-24.88,13.63a3.73,3.73,0,1,1-3.73,3.73A3.74,3.74,0,0,1,159.95,122.86Zm59.05-.14H179.17l-.48.48-9.7,9.7h-2.06v.81H152.8v-.81H92.38L97,129.44h58.44a5.35,5.35,0,0,0,9.89-2.85,5.29,5.29,0,0,0-.65-2.5l5.22-3.85h51.6Zm156,13.59H359.68v.81h-6.16l-8.4-8.4a7.8,7.8,0,1,0-13.84-6.36H309.19l-7.57,7.57H246.19l9.71-9.71h40.66l9.48-9.48h39.13l17.52,17.52h5.82v-2.44h19.23l.24.82,5,4.54,2.21,5.49L393,134.84l-.43-3.1-.59,3.1,1.19,2.29H375Zm178.78-6.37H498.38l-7.57-7.57H468.71a7.81,7.81,0,1,0-13.84,6.36L451.63,132l-.58-.58-4.91,4.91H430.61v.81H406.87l1.19-2.29-.59-3.1-.43,3.1-2.23,1.86L407,131.2l5-4.54.24-.82h19.22v2.44h5.82l17.52-17.52H494l9.48,9.48H544.1Zm93.39,3.77H633.06v-.81H631l-9.7-9.7-.48-.48H581l-2.48-2.48h51.59l5.22,3.85a5.29,5.29,0,0,0-.65,2.5,5.35,5.35,0,0,0,9.89,2.85H703l4.61,3.46H647.19Z"/>
    <polygon
        points="609.96 131 604.37 131 600.92 127.55 597.47 131 591.88 131 588.43 127.55 584.17 131.81 588.43 136.08 591.88 132.63 597.47 132.63 600.92 136.08 604.37 132.63 609.96 132.63 613.41 136.08 617.67 131.81 613.41 127.55 609.96 131"/>
    <polygon
        points="403.11 142.55 402.19 141.63 400 141.63 397.81 141.63 396.89 142.55 396.89 141.6 395.88 140.59 395.88 142.28 396.89 143.86 400 143.86 403.11 143.86 404.12 142.28 404.12 140.59 403.11 141.6 403.11 142.55"/>
</svg>
